<?xml version="1.0" encoding="UTF-8"?><svg xmlns="http://www.w3.org/2000/svg" viewBox="0 0 801 801"><defs><style>.d,.e{stroke:#4d4d4d;stroke-miterlimit:10;}.e{fill:none;}</style></defs><g id="a"/><g id="b"><g id="c"><g><rect class="d" x=".5" y=".5" width="800" height="800"/><g><line class="e" x1=".5" y1=".5" x2=".5" y2="800.5"/><line class="e" x1="11.77" y1=".5" x2="11.77" y2="800.5"/><line class="e" x1="23.04" y1=".5" x2="23.04" y2="800.5"/><line class="e" x1="34.3" y1=".5" x2="34.3" y2="800.5"/><line class="e" x1="45.57" y1=".5" x2="45.57" y2="800.5"/><line class="e" x1="56.84" y1=".5" x2="56.84" y2="800.5"/><line class="e" x1="68.11" y1=".5" x2="68.11" y2="800.5"/><line class="e" x1="79.37" y1=".5" x2="79.37" y2="800.5"/><line class="e" x1="90.64" y1=".5" x2="90.64" y2="800.5"/><line class="e" x1="101.91" y1=".5" x2="101.91" y2="800.5"/><line class="e" x1="113.18" y1=".5" x2="113.18" y2="800.5"/><line class="e" x1="124.44" y1=".5" x2="124.44" y2="800.5"/><line class="e" x1="135.71" y1=".5" x2="135.71" y2="800.5"/><line class="e" x1="146.98" y1=".5" x2="146.98" y2="800.5"/><line class="e" x1="158.25" y1=".5" x2="158.25" y2="800.5"/><line class="e" x1="169.51" y1=".5" x2="169.51" y2="800.5"/><line class="e" x1="180.78" y1=".5" x2="180.78" y2="800.5"/><line class="e" x1="192.05" y1=".5" x2="192.05" y2="800.5"/><line class="e" x1="203.32" y1=".5" x2="203.32" y2="800.5"/><line class="e" x1="214.58" y1=".5" x2="214.58" y2="800.5"/><line class="e" x1="225.85" y1=".5" x2="225.85" y2="800.5"/><line class="e" x1="237.12" y1=".5" x2="237.12" y2="800.5"/><line class="e" x1="248.39" y1=".5" x2="248.39" y2="800.5"/><line class="e" x1="259.65" y1=".5" x2="259.65" y2="800.5"/><line class="e" x1="270.92" y1=".5" x2="270.92" y2="800.5"/><line class="e" x1="282.19" y1=".5" x2="282.19" y2="800.5"/><line class="e" x1="293.46" y1=".5" x2="293.46" y2="800.5"/><line class="e" x1="304.73" y1=".5" x2="304.73" y2="800.5"/><line class="e" x1="315.99" y1=".5" x2="315.99" y2="800.5"/><line class="e" x1="327.26" y1=".5" x2="327.26" y2="800.5"/><line class="e" x1="338.53" y1=".5" x2="338.53" y2="800.5"/><line class="e" x1="349.8" y1=".5" x2="349.8" y2="800.5"/><line class="e" x1="361.06" y1=".5" x2="361.06" y2="800.5"/><line class="e" x1="372.33" y1=".5" x2="372.33" y2="800.5"/><line class="e" x1="383.6" y1=".5" x2="383.6" y2="800.5"/><line class="e" x1="394.87" y1=".5" x2="394.87" y2="800.5"/><line class="e" x1="406.13" y1=".5" x2="406.13" y2="800.5"/><line class="e" x1="417.4" y1=".5" x2="417.4" y2="800.5"/><line class="e" x1="428.67" y1=".5" x2="428.67" y2="800.5"/><line class="e" x1="439.94" y1=".5" x2="439.94" y2="800.5"/><line class="e" x1="451.2" y1=".5" x2="451.2" y2="800.5"/><line class="e" x1="462.47" y1=".5" x2="462.47" y2="800.5"/><line class="e" x1="473.74" y1=".5" x2="473.74" y2="800.5"/><line class="e" x1="485.01" y1=".5" x2="485.01" y2="800.5"/><line class="e" x1="496.27" y1=".5" x2="496.27" y2="800.5"/><line class="e" x1="507.54" y1=".5" x2="507.54" y2="800.5"/><line class="e" x1="518.81" y1=".5" x2="518.81" y2="800.5"/><line class="e" x1="530.08" y1=".5" x2="530.08" y2="800.5"/><line class="e" x1="541.35" y1=".5" x2="541.35" y2="800.5"/><line class="e" x1="552.61" y1=".5" x2="552.61" y2="800.5"/><line class="e" x1="563.88" y1=".5" x2="563.88" y2="800.5"/><line class="e" x1="575.15" y1=".5" x2="575.15" y2="800.5"/><line class="e" x1="586.42" y1=".5" x2="586.42" y2="800.5"/><line class="e" x1="597.68" y1=".5" x2="597.68" y2="800.5"/><line class="e" x1="608.95" y1=".5" x2="608.95" y2="800.5"/><line class="e" x1="620.22" y1=".5" x2="620.22" y2="800.5"/><line class="e" x1="631.49" y1=".5" x2="631.49" y2="800.5"/><line class="e" x1="642.75" y1=".5" x2="642.75" y2="800.5"/><line class="e" x1="654.02" y1=".5" x2="654.02" y2="800.5"/><line class="e" x1="665.29" y1=".5" x2="665.29" y2="800.5"/><line class="e" x1="676.56" y1=".5" x2="676.56" y2="800.5"/><line class="e" x1="687.82" y1=".5" x2="687.82" y2="800.5"/><line class="e" x1="699.09" y1=".5" x2="699.09" y2="800.5"/><line class="e" x1="710.36" y1=".5" x2="710.36" y2="800.5"/><line class="e" x1="721.63" y1=".5" x2="721.63" y2="800.5"/><line class="e" x1="732.89" y1=".5" x2="732.89" y2="800.5"/><line class="e" x1="744.16" y1=".5" x2="744.16" y2="800.5"/><line class="e" x1="755.43" y1=".5" x2="755.43" y2="800.5"/><line class="e" x1="766.7" y1=".5" x2="766.7" y2="800.5"/><line class="e" x1="777.96" y1=".5" x2="777.96" y2="800.5"/><line class="e" x1="789.23" y1=".5" x2="789.23" y2="800.5"/><line class="e" x1="800.5" y1=".5" x2="800.5" y2="800.5"/></g><g><line class="e" x1=".5" y1="800.5" x2="800.5" y2="800.5"/><line class="e" x1=".5" y1="789.23" x2="800.5" y2="789.23"/><line class="e" x1=".5" y1="777.96" x2="800.5" y2="777.96"/><line class="e" x1=".5" y1="766.7" x2="800.5" y2="766.7"/><line class="e" x1=".5" y1="755.43" x2="800.5" y2="755.43"/><line class="e" x1=".5" y1="744.16" x2="800.5" y2="744.16"/><line class="e" x1=".5" y1="732.89" x2="800.5" y2="732.89"/><line class="e" x1=".5" y1="721.63" x2="800.5" y2="721.63"/><line class="e" x1=".5" y1="710.36" x2="800.5" y2="710.36"/><line class="e" x1=".5" y1="699.09" x2="800.5" y2="699.09"/><line class="e" x1=".5" y1="687.82" x2="800.5" y2="687.82"/><line class="e" x1=".5" y1="676.56" x2="800.5" y2="676.56"/><line class="e" x1=".5" y1="665.29" x2="800.5" y2="665.29"/><line class="e" x1=".5" y1="654.02" x2="800.5" y2="654.02"/><line class="e" x1=".5" y1="642.75" x2="800.5" y2="642.75"/><line class="e" x1=".5" y1="631.49" x2="800.5" y2="631.49"/><line class="e" x1=".5" y1="620.22" x2="800.5" y2="620.22"/><line class="e" x1=".5" y1="608.95" x2="800.5" y2="608.95"/><line class="e" x1=".5" y1="597.68" x2="800.5" y2="597.68"/><line class="e" x1=".5" y1="586.42" x2="800.5" y2="586.42"/><line class="e" x1=".5" y1="575.15" x2="800.5" y2="575.15"/><line class="e" x1=".5" y1="563.88" x2="800.5" y2="563.88"/><line class="e" x1=".5" y1="552.61" x2="800.5" y2="552.61"/><line class="e" x1=".5" y1="541.35" x2="800.5" y2="541.35"/><line class="e" x1=".5" y1="530.08" x2="800.5" y2="530.08"/><line class="e" x1=".5" y1="518.81" x2="800.5" y2="518.81"/><line class="e" x1=".5" y1="507.54" x2="800.5" y2="507.54"/><line class="e" x1=".5" y1="496.27" x2="800.5" y2="496.27"/><line class="e" x1=".5" y1="485.01" x2="800.5" y2="485.01"/><line class="e" x1=".5" y1="473.74" x2="800.5" y2="473.74"/><line class="e" x1=".5" y1="462.47" x2="800.5" y2="462.47"/><line class="e" x1=".5" y1="451.2" x2="800.5" y2="451.2"/><line class="e" x1=".5" y1="439.94" x2="800.5" y2="439.94"/><line class="e" x1=".5" y1="428.67" x2="800.5" y2="428.67"/><line class="e" x1=".5" y1="417.4" x2="800.5" y2="417.4"/><line class="e" x1=".5" y1="406.13" x2="800.5" y2="406.13"/><line class="e" x1=".5" y1="394.87" x2="800.5" y2="394.87"/><line class="e" x1=".5" y1="383.6" x2="800.5" y2="383.6"/><line class="e" x1=".5" y1="372.33" x2="800.5" y2="372.33"/><line class="e" x1=".5" y1="361.06" x2="800.5" y2="361.06"/><line class="e" x1=".5" y1="349.8" x2="800.5" y2="349.8"/><line class="e" x1=".5" y1="338.53" x2="800.5" y2="338.53"/><line class="e" x1=".5" y1="327.26" x2="800.5" y2="327.26"/><line class="e" x1=".5" y1="315.99" x2="800.5" y2="315.99"/><line class="e" x1=".5" y1="304.73" x2="800.5" y2="304.73"/><line class="e" x1=".5" y1="293.46" x2="800.5" y2="293.46"/><line class="e" x1=".5" y1="282.19" x2="800.5" y2="282.19"/><line class="e" x1=".5" y1="270.92" x2="800.5" y2="270.92"/><line class="e" x1=".5" y1="259.65" x2="800.5" y2="259.65"/><line class="e" x1=".5" y1="248.39" x2="800.5" y2="248.39"/><line class="e" x1=".5" y1="237.12" x2="800.5" y2="237.12"/><line class="e" x1=".5" y1="225.85" x2="800.5" y2="225.85"/><line class="e" x1=".5" y1="214.58" x2="800.5" y2="214.58"/><line class="e" x1=".5" y1="203.32" x2="800.5" y2="203.32"/><line class="e" x1=".5" y1="192.05" x2="800.5" y2="192.05"/><line class="e" x1=".5" y1="180.78" x2="800.5" y2="180.78"/><line class="e" x1=".5" y1="169.51" x2="800.5" y2="169.51"/><line class="e" x1=".5" y1="158.25" x2="800.5" y2="158.25"/><line class="e" x1=".5" y1="146.98" x2="800.5" y2="146.98"/><line class="e" x1=".5" y1="135.71" x2="800.5" y2="135.71"/><line class="e" x1=".5" y1="124.44" x2="800.5" y2="124.44"/><line class="e" x1=".5" y1="113.18" x2="800.5" y2="113.18"/><line class="e" x1=".5" y1="101.91" x2="800.5" y2="101.91"/><line class="e" x1=".5" y1="90.64" x2="800.5" y2="90.64"/><line class="e" x1=".5" y1="79.37" x2="800.5" y2="79.37"/><line class="e" x1=".5" y1="68.11" x2="800.5" y2="68.11"/><line class="e" x1=".5" y1="56.84" x2="800.5" y2="56.84"/><line class="e" x1=".5" y1="45.57" x2="800.5" y2="45.57"/><line class="e" x1=".5" y1="34.3" x2="800.5" y2="34.3"/><line class="e" x1=".5" y1="23.04" x2="800.5" y2="23.04"/><line class="e" x1=".5" y1="11.77" x2="800.5" y2="11.77"/><line class="e" x1=".5" y1=".5" x2="800.5" y2=".5"/></g></g></g></g></svg>